<svg width="1921" height="960" viewBox="0 0 1921 960" fill="none" xmlns="http://www.w3.org/2000/svg">
<rect x="1" width="1100" height="891" fill="#4B4B4B"/>
<rect x="101" y="95" width="900" height="700" fill="white"/>
<rect x="1021" y="95" width="900" height="700" fill="white"/>
<path d="M586.839 384.205V529.66H560.489V409.844H559.637L525.617 431.577V407.43L561.768 384.205H586.839Z" fill="black"/>
<path d="M1000.29 924.293C999.902 924.683 999.902 925.317 1000.29 925.707L1006.66 932.071C1007.05 932.462 1007.68 932.462 1008.07 932.071C1008.46 931.681 1008.46 931.047 1008.07 930.657L1002.41 925L1008.07 919.343C1008.46 918.953 1008.46 918.319 1008.07 917.929C1007.68 917.538 1007.05 917.538 1006.66 917.929L1000.29 924.293ZM1101.71 925.707C1102.1 925.317 1102.1 924.683 1101.71 924.293L1095.34 917.929C1094.95 917.538 1094.32 917.538 1093.93 917.929C1093.54 918.319 1093.54 918.953 1093.93 919.343L1099.59 925L1093.93 930.657C1093.54 931.047 1093.54 931.681 1093.93 932.071C1094.32 932.462 1094.95 932.462 1095.34 932.071L1101.71 925.707ZM1001 926L1101 926L1101 924L1001 924L1001 926Z" fill="white"/>
<path d="M1000.29 807.293C999.902 807.683 999.902 808.317 1000.29 808.707L1006.66 815.071C1007.05 815.462 1007.68 815.462 1008.07 815.071C1008.46 814.681 1008.46 814.047 1008.07 813.657L1002.41 808L1008.07 802.343C1008.46 801.953 1008.46 801.319 1008.07 800.929C1007.68 800.538 1007.05 800.538 1006.66 800.929L1000.29 807.293ZM1020.71 808.707C1021.1 808.317 1021.1 807.683 1020.71 807.293L1014.34 800.929C1013.95 800.538 1013.32 800.538 1012.93 800.929C1012.54 801.319 1012.54 801.953 1012.93 802.343L1018.59 808L1012.93 813.657C1012.54 814.047 1012.54 814.681 1012.93 815.071C1013.32 815.462 1013.95 815.462 1014.34 815.071L1020.71 808.707ZM1001 809H1020V807H1001V809Z" fill="white"/>
<path d="M1445.45 511V491.966L1495.95 442.463C1500.78 437.586 1504.8 433.254 1508.02 429.466C1511.24 425.678 1513.66 422.009 1515.27 418.457C1516.88 414.906 1517.68 411.118 1517.68 407.094C1517.68 402.501 1516.64 398.571 1514.56 395.304C1512.47 391.99 1509.61 389.433 1505.96 387.634C1502.32 385.834 1498.17 384.935 1493.53 384.935C1488.75 384.935 1484.56 385.929 1480.96 387.918C1477.36 389.859 1474.57 392.629 1472.58 396.227C1470.64 399.826 1469.67 404.111 1469.67 409.082H1444.6C1444.6 399.849 1446.71 391.824 1450.92 385.006C1455.13 378.187 1460.93 372.908 1468.32 369.168C1475.75 365.427 1484.28 363.557 1493.89 363.557C1503.64 363.557 1512.21 365.38 1519.6 369.026C1526.99 372.671 1532.71 377.667 1536.79 384.011C1540.91 390.356 1542.97 397.6 1542.97 405.744C1542.97 411.189 1541.92 416.54 1539.84 421.795C1537.76 427.051 1534.09 432.875 1528.83 439.267C1523.62 445.659 1516.31 453.401 1506.89 462.491L1481.82 487.989V488.983H1545.17V511H1445.45Z" fill="black"/>
<path d="M1037.01 935.818V954H1033.72V939.023H1033.61L1029.36 941.74V938.721L1033.88 935.818H1037.01ZM1048.35 954.346C1046.89 954.346 1045.63 953.976 1044.58 953.237C1043.54 952.491 1042.74 951.417 1042.18 950.014C1041.62 948.605 1041.34 946.91 1041.34 944.927C1041.35 942.944 1041.63 941.257 1042.19 939.866C1042.75 938.47 1043.55 937.404 1044.59 936.67C1045.64 935.937 1046.89 935.57 1048.35 935.57C1049.8 935.57 1051.06 935.937 1052.1 936.67C1053.15 937.404 1053.95 938.47 1054.51 939.866C1055.07 941.263 1055.35 942.95 1055.35 944.927C1055.35 946.915 1055.07 948.614 1054.51 950.023C1053.95 951.425 1053.15 952.497 1052.1 953.237C1051.06 953.976 1049.81 954.346 1048.35 954.346ZM1048.35 951.567C1049.48 951.567 1050.38 951.008 1051.04 949.89C1051.7 948.765 1052.03 947.111 1052.03 944.927C1052.03 943.483 1051.88 942.269 1051.58 941.287C1051.28 940.304 1050.85 939.565 1050.3 939.067C1049.75 938.564 1049.1 938.313 1048.35 938.313C1047.22 938.313 1046.32 938.875 1045.67 940C1045.01 941.118 1044.68 942.761 1044.67 944.927C1044.67 946.377 1044.81 947.596 1045.11 948.585C1045.41 949.573 1045.84 950.319 1046.39 950.822C1046.94 951.319 1047.59 951.567 1048.35 951.567ZM1065.02 954.346C1063.56 954.346 1062.31 953.976 1061.26 953.237C1060.22 952.491 1059.41 951.417 1058.85 950.014C1058.3 948.605 1058.02 946.91 1058.02 944.927C1058.02 942.944 1058.31 941.257 1058.86 939.866C1059.42 938.47 1060.23 937.404 1061.27 936.67C1062.32 935.937 1063.57 935.57 1065.02 935.57C1066.48 935.57 1067.73 935.937 1068.78 936.67C1069.83 937.404 1070.63 938.47 1071.18 939.866C1071.75 941.263 1072.03 942.95 1072.03 944.927C1072.03 946.915 1071.75 948.614 1071.18 950.023C1070.63 951.425 1069.83 952.497 1068.78 953.237C1067.74 953.976 1066.48 954.346 1065.02 954.346ZM1065.02 951.567C1066.16 951.567 1067.06 951.008 1067.71 949.89C1068.38 948.765 1068.71 947.111 1068.71 944.927C1068.71 943.483 1068.56 942.269 1068.25 941.287C1067.95 940.304 1067.53 939.565 1066.98 939.067C1066.43 938.564 1065.77 938.313 1065.02 938.313C1063.89 938.313 1063 938.875 1062.34 940C1061.68 941.118 1061.35 942.761 1061.35 944.927C1061.34 946.377 1061.49 947.596 1061.78 948.585C1062.08 949.573 1062.51 950.319 1063.06 950.822C1063.61 951.319 1064.27 951.567 1065.02 951.567Z" fill="white"/>
<path d="M0.292893 924.293C-0.0976311 924.683 -0.097631 925.317 0.292893 925.707L6.65685 932.071C7.04738 932.462 7.68054 932.462 8.07107 932.071C8.46159 931.681 8.46159 931.047 8.07107 930.657L2.41421 925L8.07107 919.343C8.46159 918.953 8.46159 918.319 8.07107 917.929C7.68054 917.538 7.04738 917.538 6.65685 917.929L0.292893 924.293ZM101.707 925.707C102.098 925.317 102.098 924.683 101.707 924.293L95.3431 917.929C94.9526 917.538 94.3195 917.538 93.9289 917.929C93.5384 918.319 93.5384 918.953 93.9289 919.343L99.5858 925L93.9289 930.657C93.5384 931.047 93.5384 931.681 93.9289 932.071C94.3195 932.462 94.9526 932.462 95.3431 932.071L101.707 925.707ZM1 926L101 926L101 924L1 924L1 926Z" fill="white"/>
<path d="M37.011 935.818V954H33.7173V939.023H33.6108L29.3583 941.74V938.721L33.8771 935.818H37.011ZM48.348 954.346C46.8861 954.346 45.6314 953.976 44.5838 953.237C43.5421 952.491 42.7402 951.417 42.1779 950.014C41.6216 948.605 41.3434 946.91 41.3434 944.927C41.3493 942.944 41.6304 941.257 42.1868 939.866C42.7491 938.47 43.551 937.404 44.5927 936.67C45.6403 935.937 46.892 935.57 48.348 935.57C49.804 935.57 51.0558 935.937 52.1033 936.67C53.1509 937.404 53.9529 938.47 54.5092 939.866C55.0715 941.263 55.3526 942.95 55.3526 944.927C55.3526 946.915 55.0715 948.614 54.5092 950.023C53.9529 951.425 53.1509 952.497 52.1033 953.237C51.0617 953.976 49.8099 954.346 48.348 954.346ZM48.348 951.567C49.4844 951.567 50.381 951.008 51.038 949.89C51.7009 948.765 52.0323 947.111 52.0323 944.927C52.0323 943.483 51.8814 942.269 51.5795 941.287C51.2777 940.304 50.8516 939.565 50.3011 939.067C49.7507 938.564 49.0997 938.313 48.348 938.313C47.2176 938.313 46.3239 938.875 45.6669 940C45.0099 941.118 44.6785 942.761 44.6726 944.927C44.6667 946.377 44.8117 947.596 45.1076 948.585C45.4094 949.573 45.8356 950.319 46.386 950.822C46.9364 951.319 47.5904 951.567 48.348 951.567ZM65.0228 954.346C63.5609 954.346 62.3062 953.976 61.2586 953.237C60.2169 952.491 59.415 951.417 58.8527 950.014C58.2964 948.605 58.0182 946.91 58.0182 944.927C58.0241 942.944 58.3052 941.257 58.8616 939.866C59.4239 938.47 60.2258 937.404 61.2675 936.67C62.3151 935.937 63.5669 935.57 65.0228 935.57C66.4788 935.57 67.7306 935.937 68.7781 936.67C69.8257 937.404 70.6277 938.47 71.184 939.866C71.7463 941.263 72.0274 942.95 72.0274 944.927C72.0274 946.915 71.7463 948.614 71.184 950.023C70.6277 951.425 69.8257 952.497 68.7781 953.237C67.7365 953.976 66.4847 954.346 65.0228 954.346ZM65.0228 951.567C66.1592 951.567 67.0558 951.008 67.7128 949.89C68.3757 948.765 68.7071 947.111 68.7071 944.927C68.7071 943.483 68.5562 942.269 68.2544 941.287C67.9525 940.304 67.5264 939.565 66.9759 939.067C66.4255 938.564 65.7745 938.313 65.0228 938.313C63.8924 938.313 62.9987 938.875 62.3417 940C61.6847 941.118 61.3533 942.761 61.3474 944.927C61.3415 946.377 61.4865 947.596 61.7824 948.585C62.0843 949.573 62.5104 950.319 63.0608 950.822C63.6112 951.319 64.2652 951.567 65.0228 951.567Z" fill="white"/>
<path d="M995.616 839V836.621L1001.93 830.433C1002.53 829.823 1003.03 829.282 1003.44 828.808C1003.84 828.335 1004.14 827.876 1004.34 827.432C1004.54 826.988 1004.64 826.515 1004.64 826.012C1004.64 825.438 1004.51 824.946 1004.25 824.538C1003.99 824.124 1003.64 823.804 1003.18 823.579C1002.72 823.354 1002.21 823.242 1001.63 823.242C1001.03 823.242 1000.5 823.366 1000.05 823.615C999.605 823.857 999.256 824.204 999.007 824.653C998.764 825.103 998.643 825.639 998.643 826.26H995.509C995.509 825.106 995.773 824.103 996.299 823.251C996.826 822.398 997.551 821.739 998.474 821.271C999.404 820.803 1000.47 820.57 1001.67 820.57C1002.89 820.57 1003.96 820.797 1004.88 821.253C1005.81 821.709 1006.52 822.333 1007.03 823.126C1007.55 823.92 1007.81 824.825 1007.81 825.843C1007.81 826.524 1007.67 827.192 1007.41 827.849C1007.15 828.506 1006.7 829.234 1006.04 830.033C1005.39 830.832 1004.47 831.8 1003.3 832.936L1000.16 836.124V836.248H1008.08V839H995.616ZM1017.86 839.346C1016.4 839.346 1015.15 838.976 1014.1 838.237C1013.06 837.491 1012.26 836.417 1011.69 835.014C1011.14 833.605 1010.86 831.91 1010.86 829.927C1010.86 827.944 1011.15 826.257 1011.7 824.866C1012.26 823.47 1013.07 822.404 1014.11 821.67C1015.16 820.937 1016.41 820.57 1017.86 820.57C1019.32 820.57 1020.57 820.937 1021.62 821.67C1022.67 822.404 1023.47 823.47 1024.02 824.866C1024.59 826.263 1024.87 827.95 1024.87 829.927C1024.87 831.915 1024.59 833.614 1024.02 835.023C1023.47 836.425 1022.67 837.497 1021.62 838.237C1020.58 838.976 1019.33 839.346 1017.86 839.346ZM1017.86 836.567C1019 836.567 1019.9 836.008 1020.55 834.89C1021.22 833.765 1021.55 832.111 1021.55 829.927C1021.55 828.483 1021.4 827.269 1021.1 826.287C1020.79 825.304 1020.37 824.565 1019.82 824.067C1019.27 823.564 1018.62 823.313 1017.86 823.313C1016.73 823.313 1015.84 823.875 1015.18 825C1014.53 826.118 1014.19 827.761 1014.19 829.927C1014.18 831.377 1014.33 832.596 1014.62 833.585C1014.93 834.573 1015.35 835.319 1015.9 835.822C1016.45 836.319 1017.11 836.567 1017.86 836.567Z" fill="white"/>
<path fill-rule="evenodd" clip-rule="evenodd" d="M1101.48 95H1021.96V795H1101.48V95ZM1181 95V795H1181V95H1181Z" fill="url(#paint0_radial_89_25)"/>
<path d="M1043.6 464.306L1064.33 446.806L1043.6 429.306" stroke="#222222" stroke-width="6" stroke-linecap="round" stroke-linejoin="round"/>
<path fill-rule="evenodd" clip-rule="evenodd" d="M79.4634 91.7278H1V807.581H79.4634V91.7278Z" fill="url(#paint1_radial_89_25)"/>
<path d="M56.8639 464.306L36.129 446.806L56.8639 429.306" stroke="white" stroke-width="6" stroke-linecap="round" stroke-linejoin="round"/>
<defs>
<radialGradient id="paint0_radial_89_25" cx="0" cy="0" r="1" gradientUnits="userSpaceOnUse" gradientTransform="translate(1181 445) rotate(90) scale(350 159.038)">
<stop offset="0.155" stop-color="#030303" stop-opacity="0.84"/>
<stop offset="1" stop-opacity="0"/>
</radialGradient>
<radialGradient id="paint1_radial_89_25" cx="0" cy="0" r="1" gradientUnits="userSpaceOnUse" gradientTransform="translate(1 449.654) rotate(90) scale(357.927 78.4634)">
<stop offset="0.155" stop-color="#030303" stop-opacity="0.84"/>
<stop offset="1" stop-opacity="0"/>
</radialGradient>
</defs>
</svg>
