<svg width="415" height="158" viewBox="0 0 415 158" fill="none" xmlns="http://www.w3.org/2000/svg">
<path d="M117.587 24.5109C135.838 35.7848 148 55.9721 148 79C148 114.346 119.346 143 84 143C76.292 143 68.9023 141.637 62.0606 139.138L61.3297 138.866L62.5199 138.483L64.0499 137.982L64.8048 137.729L65.5529 137.476L67.0288 136.968L68.4777 136.456L69.8996 135.941L71.2944 135.423L71.9818 135.162L73.3361 134.638C74.7664 134.078 76.1506 133.511 77.4888 132.939L78.4837 132.508L79.7032 131.967C80.2392 131.725 80.7672 131.483 81.2872 131.239L82.0612 130.873L83.1998 130.32L83.759 130.043L84.3115 129.764L85.3962 129.204C94.5017 124.428 100.688 119.239 103.973 113.55C110.932 101.496 104.854 88.6151 87.4065 75.4831L85.9866 74.4185L85.1241 73.7571L84.2868 73.1007L83.4744 72.4493L82.6869 71.8029L82.3025 71.4815L81.9243 71.1614L81.1865 70.5249L80.6493 70.0507L80.1259 69.5793L79.4496 68.9551L78.7978 68.3357L78.1703 67.7211L77.8657 67.4156L77.5671 67.1113L76.9882 66.5063C70.091 59.1743 68.5509 52.8977 71.6821 47.4742C73.2758 44.7139 76.0388 42 79.9662 39.3569L80.4431 39.0401L81.194 38.5569C81.5336 38.3425 81.8809 38.1286 82.236 37.9152L82.7744 37.5954L83.6037 37.1173L84.4592 36.6408L85.118 36.2847L85.7914 35.9295L86.7121 35.4576C87.4125 35.1043 88.1348 34.7526 88.8792 34.4026L89.6309 34.0531L90.6559 33.5888L91.1783 33.3574L92.2424 32.8961L92.7843 32.6663L93.8875 32.2081L94.4489 31.9798L95.5913 31.5247L96.1722 31.298L97.3536 30.8462L98.561 30.3966L99.1744 30.1726L100.421 29.7264L101.693 29.2824L102.992 28.8407L103.651 28.6208L104.988 28.1827L106.352 27.7469L107.741 27.3136L109.156 26.8828L110.598 26.4545L112.436 25.9226L114.315 25.3947L116.623 24.7667L117.587 24.5109ZM84 15C91.783 15 99.2415 16.3893 106.141 18.9334L106.878 19.2104L106.411 19.3519L104.131 20.0545L103.385 20.2906L101.912 20.7654L100.466 21.244L99.0473 21.7262L97.6551 22.2123L96.2897 22.7021L95.6171 22.9484L93.9649 23.5685L92.3545 24.1947L91.0964 24.7001L90.4774 24.9543L89.2594 25.4656C76.8124 30.77 68.6548 36.7176 64.7539 43.4742C57.9454 55.267 64.1208 67.9797 81.5703 81.1081L82.9901 82.1728L83.8523 82.8346L84.6893 83.4918L85.0983 83.8186L85.8975 84.4686L86.4805 84.9531L87.0494 85.435L87.7861 86.0734L88.1451 86.3909L88.8446 87.0225C89.2263 87.3721 89.5966 87.7196 89.9555 88.0649L90.4852 88.5815L91.248 89.3504L91.9726 90.1124C98.8403 97.4954 100.308 103.897 97.0447 109.55C94.933 113.207 90.9014 116.808 84.959 120.303L84.4135 120.621L83.5294 121.122L82.6189 121.621C82.1058 121.898 81.5805 122.174 81.0431 122.45L80.2278 122.862L79.2253 123.356L78.1965 123.848L77.1414 124.339L76.604 124.584L75.5096 125.071L74.3888 125.558L73.2418 126.042L72.6585 126.283L71.4721 126.765L70.869 127.005L70.2594 127.245L69.0205 127.723L67.7554 128.199L66.4641 128.673L65.1465 129.145L63.8027 129.615L63.121 129.849L61.7379 130.316L61.0365 130.548L59.6141 131.012L58.1655 131.473L56.318 132.047L54.4295 132.618L52.8893 133.071L50.7397 133.689C32.3072 122.455 20 102.165 20 79C20 43.6538 48.6538 15 84 15Z" fill="#0080FF"/>
<path d="M185.923 68.8629C185.759 67.066 185.032 65.6694 183.742 64.6729C182.468 63.6602 180.646 63.1538 178.278 63.1538C176.71 63.1538 175.403 63.358 174.357 63.7663C173.312 64.1747 172.528 64.7383 172.005 65.457C171.482 66.1594 171.213 66.968 171.196 67.8828C171.164 68.6342 171.311 69.2958 171.637 69.8675C171.98 70.4393 172.471 70.9457 173.108 71.3867C173.761 71.8114 174.545 72.1871 175.46 72.5138C176.375 72.8406 177.404 73.1264 178.547 73.3714L182.86 74.3516C185.343 74.8906 187.532 75.6094 189.426 76.5078C191.338 77.4062 192.939 78.4762 194.229 79.7177C195.536 80.9592 196.524 82.3885 197.194 84.0057C197.864 85.6229 198.207 87.4361 198.223 89.4453C198.207 92.6143 197.406 95.3342 195.822 97.6048C194.237 99.8754 191.958 101.615 188.985 102.824C186.029 104.033 182.46 104.637 178.278 104.637C174.08 104.637 170.42 104.008 167.3 102.75C164.18 101.493 161.755 99.5813 160.023 97.0167C158.292 94.4521 157.401 91.2095 157.352 87.2891H168.967C169.065 88.9062 169.498 90.2539 170.265 91.332C171.033 92.4102 172.087 93.2269 173.426 93.7823C174.782 94.3377 176.35 94.6154 178.131 94.6154C179.764 94.6154 181.153 94.3949 182.296 93.9538C183.456 93.5128 184.346 92.9002 184.967 92.1161C185.588 91.332 185.906 90.4336 185.923 89.4208C185.906 88.4734 185.612 87.6648 185.04 86.995C184.469 86.3089 183.587 85.7209 182.394 85.2308C181.218 84.7244 179.715 84.2589 177.886 83.8342L172.642 82.609C168.297 81.6126 164.875 80.0036 162.375 77.782C159.876 75.544 158.635 72.522 158.651 68.7159C158.635 65.6122 159.468 62.8924 161.15 60.5565C162.833 58.2205 165.161 56.3991 168.134 55.0923C171.107 53.7855 174.496 53.1321 178.302 53.1321C182.19 53.1321 185.563 53.7937 188.422 55.1168C191.297 56.4236 193.527 58.2614 195.111 60.63C196.696 62.9986 197.504 65.7429 197.537 68.8629H185.923ZM211.381 104L201.58 66.3636H213.611L218.683 90.4744H219.001L224.441 66.3636H236.178L241.765 90.3029H242.083L247.008 66.3636H259.039L249.213 104H236.398L230.518 82.07H230.101L224.221 104H211.381ZM263.848 104V66.3636H275.83V104H263.848ZM269.851 61.9776C268.168 61.9776 266.723 61.4222 265.514 60.3114C264.305 59.1843 263.701 57.8285 263.701 56.244C263.701 54.6758 264.305 53.3363 265.514 52.2255C266.723 51.0984 268.168 50.5348 269.851 50.5348C271.55 50.5348 272.995 51.0984 274.188 52.2255C275.397 53.3363 276.001 54.6758 276.001 56.244C276.001 57.8285 275.397 59.1843 274.188 60.3114C272.995 61.4222 271.55 61.9776 269.851 61.9776ZM283.456 118.114V66.3636H295.316V72.8079H295.683C296.173 71.6644 296.867 70.5618 297.766 69.5C298.681 68.4382 299.84 67.5724 301.245 66.9027C302.666 66.2166 304.365 65.8736 306.342 65.8736C308.955 65.8736 311.398 66.5597 313.668 67.9318C315.955 69.304 317.801 71.4194 319.206 74.2781C320.611 77.1367 321.313 80.7795 321.313 85.2063C321.313 89.4698 320.635 93.0391 319.279 95.9141C317.94 98.7891 316.127 100.945 313.84 102.383C311.569 103.82 309.045 104.539 306.268 104.539C304.373 104.539 302.732 104.229 301.343 103.608C299.955 102.987 298.787 102.17 297.839 101.158C296.908 100.145 296.189 99.0586 295.683 97.8988H295.438V118.114H283.456ZM295.193 85.1818C295.193 87.2074 295.463 88.9716 296.002 90.4744C296.557 91.9773 297.349 93.1452 298.378 93.9783C299.424 94.7951 300.673 95.2035 302.127 95.2035C303.597 95.2035 304.847 94.7951 305.876 93.9783C306.905 93.1452 307.681 91.9773 308.204 90.4744C308.743 88.9716 309.013 87.2074 309.013 85.1818C309.013 83.1562 308.743 81.4002 308.204 79.9137C307.681 78.4272 306.905 77.2756 305.876 76.4588C304.863 75.642 303.614 75.2337 302.127 75.2337C300.657 75.2337 299.407 75.6339 298.378 76.4343C297.349 77.2347 296.557 78.3782 296.002 79.8647C295.463 81.3512 295.193 83.1236 295.193 85.1818ZM345.185 104.711C341.248 104.711 337.85 103.935 334.992 102.383C332.149 100.815 329.96 98.5849 328.425 95.6935C326.906 92.7859 326.146 89.331 326.146 85.3288C326.146 81.4411 326.914 78.0433 328.449 75.1357C329.985 72.2116 332.149 69.941 334.943 68.3239C337.736 66.6903 341.028 65.8736 344.817 65.8736C347.496 65.8736 349.947 66.2901 352.168 67.1232C354.39 67.9563 356.309 69.1896 357.926 70.8232C359.544 72.4567 360.801 74.4741 361.7 76.8754C362.598 79.2603 363.047 81.9964 363.047 85.0838V88.0732H330.336V81.1143H351.899C351.882 79.8402 351.58 78.7049 350.992 77.7085C350.404 76.712 349.595 75.9361 348.566 75.3807C347.554 74.8089 346.386 74.5231 345.062 74.5231C343.723 74.5231 342.522 74.8253 341.46 75.4297C340.399 76.0178 339.557 76.8263 338.937 77.8555C338.316 78.8683 337.989 80.0199 337.957 81.3104V88.3917C337.957 89.9272 338.259 91.2749 338.863 92.4347C339.468 93.5781 340.325 94.4684 341.436 95.1055C342.547 95.7425 343.87 96.0611 345.405 96.0611C346.467 96.0611 347.431 95.9141 348.297 95.62C349.163 95.326 349.906 94.8931 350.527 94.3214C351.147 93.7496 351.613 93.0472 351.923 92.2141L362.925 92.5327C362.468 94.9993 361.463 97.1474 359.911 98.9769C358.376 100.79 356.358 102.203 353.859 103.216C351.36 104.212 348.468 104.711 345.185 104.711ZM369.167 104V66.3636H380.806V73.2244H381.198C381.884 70.7415 383.003 68.8956 384.555 67.6868C386.107 66.4616 387.912 65.8491 389.97 65.8491C390.525 65.8491 391.097 65.8899 391.685 65.9716C392.273 66.0369 392.82 66.1431 393.327 66.2901V76.7038C392.755 76.5078 392.004 76.3526 391.073 76.2383C390.158 76.1239 389.341 76.0668 388.622 76.0668C387.201 76.0668 385.919 76.3853 384.775 77.0224C383.648 77.6431 382.758 78.517 382.105 79.6442C381.468 80.755 381.149 82.0618 381.149 83.5646V104H369.167Z" fill="#ABC7FF"/>
</svg>
