<svg width="201" height="105" viewBox="0 0 201 105" fill="none" xmlns="http://www.w3.org/2000/svg">
<path d="M53.3819 24.3685C62.8045 30.189 69.0835 40.6112 69.0835 52.5C69.0835 70.7484 54.2902 85.5417 36.0417 85.5417C32.0623 85.5417 28.2471 84.8382 24.7149 83.5478L24.3376 83.4073L24.9521 83.2099L25.742 82.9508L26.1317 82.8207L26.5179 82.6901L27.2799 82.4276L28.0279 82.1633L28.762 81.8974L29.4821 81.6297L29.837 81.4951L30.5362 81.2248C31.2746 80.9354 31.9893 80.6429 32.6801 80.3473L33.1938 80.125L33.8234 79.8455C34.1001 79.7208 34.3727 79.5956 34.6412 79.4698L35.0408 79.2807L35.6286 78.9955L35.9173 78.8521L36.2025 78.7083L36.7626 78.4192C41.4635 75.9533 44.6575 73.2745 46.3533 70.3373C49.9462 64.1143 46.8083 57.464 37.8004 50.6843L37.0674 50.1347L36.6221 49.7932L36.1898 49.4543L35.7704 49.118L35.3638 48.7843L35.1654 48.6184L34.9701 48.4531L34.5892 48.1245L34.3118 47.8797L34.0416 47.6363L33.6925 47.314L33.3559 46.9942L33.032 46.6769L32.8747 46.5192L32.7206 46.3621L32.4217 46.0498C28.8609 42.2644 28.0657 39.0239 29.6823 36.2239C30.5051 34.7988 31.9315 33.3977 33.9592 32.0332L34.2054 31.8696L34.5931 31.6201C34.7684 31.5095 34.9477 31.399 35.131 31.2888L35.409 31.1238L35.8372 30.8769L36.2788 30.6309L36.6189 30.447L36.9666 30.2637L37.4419 30.02C37.8035 29.8377 38.1764 29.6561 38.5607 29.4754L38.9488 29.2949L39.478 29.0552L39.7477 28.9358L40.2971 28.6976L40.5769 28.5789L41.1464 28.3424L41.4363 28.2245L42.026 27.9896L42.326 27.8725L42.9359 27.6393L43.5592 27.4072L43.8759 27.2915L44.5195 27.0611L45.1764 26.8319L45.8468 26.6039L46.187 26.4904L46.8775 26.2642L47.5814 26.0392L48.2987 25.8155L49.0294 25.5931L49.7736 25.3719L50.7226 25.0973L51.6925 24.8248L52.8841 24.5006L53.3819 24.3685ZM36.0417 19.4583C40.0599 19.4583 43.9106 20.1755 47.4727 21.489L47.8532 21.632L47.612 21.705L46.4351 22.0678L46.0497 22.1897L45.2894 22.4348L44.5429 22.6819L43.8103 22.9308L43.0916 23.1818L42.3867 23.4347L42.0394 23.5619L41.1864 23.882L40.355 24.2053L39.7054 24.4662L39.3859 24.5974L38.7571 24.8614C32.3309 27.5999 28.1194 30.6706 26.1054 34.1588C22.5903 40.2472 25.7786 46.8104 34.7873 53.5884L35.5203 54.138L35.9655 54.4797L36.3976 54.819L36.6088 54.9877L37.0214 55.3233L37.3223 55.5735L37.6161 55.8222L37.9964 56.1518L38.1818 56.3158L38.5429 56.6418C38.74 56.8223 38.9311 57.0017 39.1164 57.18L39.3899 57.4467L39.7837 57.8437L40.1578 58.2371C43.7034 62.0487 44.4613 65.354 42.7764 68.2722C41.6862 70.1605 39.6048 72.0194 36.5368 73.8239L36.2552 73.9878L35.7988 74.2464L35.3287 74.5042C35.0638 74.6472 34.7926 74.7898 34.5152 74.9321L34.0942 75.1452L33.5767 75.4001L33.0455 75.6542L32.5008 75.9074L32.2234 76.0337L31.6583 76.2856L31.0797 76.5366L30.4875 76.7867L30.1864 76.9114L29.5738 77.16L29.2625 77.284L28.9478 77.4077L28.3082 77.6544L27.655 77.9001L26.9883 78.1448L26.3081 78.3885L25.6143 78.6311L25.2624 78.752L24.5483 78.9931L24.1862 79.1132L23.4519 79.3526L22.704 79.5908L21.7501 79.8871L20.7752 80.1815L19.98 80.4158L18.8702 80.7349C9.35393 74.9351 3 64.4595 3 52.5C3 34.2515 17.7933 19.4583 36.0417 19.4583Z" fill="#0080FF"/>
<path d="M185.439 62.6581V43.2273H191.447V46.7694H191.65C192.004 45.4875 192.582 44.5345 193.383 43.9104C194.184 43.2779 195.116 42.9617 196.179 42.9617C196.465 42.9617 196.761 42.9828 197.064 43.0249C197.368 43.0587 197.65 43.1135 197.912 43.1894V48.5657C197.617 48.4645 197.229 48.3844 196.748 48.3254C196.276 48.2663 195.854 48.2368 195.483 48.2368C194.749 48.2368 194.087 48.4013 193.497 48.7302C192.915 49.0507 192.455 49.5019 192.118 50.0838C191.789 50.6572 191.625 51.3319 191.625 52.1078V62.6581H185.439Z" fill="#ABC7FF"/>
<path d="M173.057 63.025C171.025 63.025 169.271 62.6244 167.795 61.8232C166.327 61.0136 165.197 59.8625 164.404 58.3697C163.62 56.8686 163.228 55.0849 163.228 53.0187C163.228 51.0115 163.624 49.2573 164.417 47.7562C165.21 46.2466 166.327 45.0743 167.769 44.2394C169.211 43.396 170.911 42.9744 172.867 42.9744C174.25 42.9744 175.516 43.1894 176.662 43.6195C177.809 44.0496 178.8 44.6864 179.635 45.5297C180.47 46.3731 181.12 47.4146 181.583 48.6543C182.047 49.8856 182.279 51.2982 182.279 52.8922V54.4355H165.391V50.8428H176.523C176.515 50.185 176.359 49.5989 176.055 49.0844C175.752 48.57 175.334 48.1694 174.803 47.8827C174.28 47.5875 173.677 47.4399 172.994 47.4399C172.302 47.4399 171.682 47.5959 171.134 47.908C170.586 48.2116 170.152 48.629 169.831 49.1603C169.511 49.6832 169.342 50.2778 169.325 50.944V54.6C169.325 55.3927 169.481 56.0885 169.793 56.6872C170.105 57.2776 170.548 57.7372 171.122 58.0661C171.695 58.395 172.378 58.5595 173.171 58.5595C173.719 58.5595 174.217 58.4836 174.664 58.3318C175.111 58.18 175.494 57.9565 175.815 57.6613C176.135 57.3661 176.376 57.0035 176.536 56.5734L182.216 56.7378C181.98 58.0113 181.461 59.1203 180.66 60.0649C179.867 61.001 178.826 61.7305 177.535 62.2534C176.245 62.7678 174.752 63.025 173.057 63.025Z" fill="#ABC7FF"/>
<path d="M141.188 69.9447V43.2274H147.311V46.5544H147.5C147.753 45.964 148.112 45.3948 148.576 44.8466C149.048 44.2984 149.647 43.8515 150.372 43.5057C151.106 43.1515 151.983 42.9744 153.003 42.9744C154.353 42.9744 155.614 43.3286 156.786 44.037C157.966 44.7454 158.919 45.8375 159.645 47.3134C160.37 48.7893 160.733 50.6699 160.733 52.9554C160.733 55.1566 160.383 56.9993 159.683 58.4836C158.991 59.9679 158.055 61.0811 156.874 61.8232C155.702 62.5654 154.399 62.9365 152.965 62.9365C151.987 62.9365 151.14 62.7762 150.423 62.4558C149.706 62.1353 149.103 61.7136 148.614 61.1907C148.133 60.6679 147.762 60.107 147.5 59.5083H147.374V69.9447H141.188ZM147.247 52.9428C147.247 53.9885 147.387 54.8993 147.665 55.6752C147.952 56.4511 148.361 57.0541 148.892 57.4842C149.432 57.9059 150.077 58.1167 150.828 58.1167C151.587 58.1167 152.232 57.9059 152.763 57.4842C153.294 57.0541 153.695 56.4511 153.965 55.6752C154.243 54.8993 154.382 53.9885 154.382 52.9428C154.382 51.897 154.243 50.9904 153.965 50.223C153.695 49.4555 153.294 48.861 152.763 48.4393C152.24 48.0176 151.595 47.8068 150.828 47.8068C150.068 47.8068 149.423 48.0134 148.892 48.4266C148.361 48.8399 147.952 49.4302 147.665 50.1977C147.387 50.9651 147.247 51.8801 147.247 52.9428Z" fill="#ABC7FF"/>
<path d="M131.065 62.6582V43.2274H137.251V62.6582H131.065ZM134.164 40.963C133.295 40.963 132.549 40.6762 131.925 40.1028C131.301 39.5208 130.989 38.8209 130.989 38.0028C130.989 37.1932 131.301 36.5016 131.925 35.9282C132.549 35.3463 133.295 35.0553 134.164 35.0553C135.041 35.0553 135.787 35.3463 136.403 35.9282C137.027 36.5016 137.339 37.1932 137.339 38.0028C137.339 38.8209 137.027 39.5208 136.403 40.1028C135.787 40.6762 135.041 40.963 134.164 40.963Z" fill="#ABC7FF"/>
<path d="M103.977 62.6581L98.9172 43.2273H105.128L107.747 55.6751H107.912L110.72 43.2273H116.779L119.664 55.5866H119.828L122.371 43.2273H128.582L123.509 62.6581H116.893L113.857 51.3361H113.642L110.606 62.6581H103.977Z" fill="#ABC7FF"/>
<path d="M90.8337 44.5176C90.7493 43.5899 90.374 42.8688 89.7078 42.3544C89.05 41.8315 88.1096 41.5701 86.8868 41.5701C86.0772 41.5701 85.4025 41.6755 84.8627 41.8863C84.323 42.0972 83.9182 42.3881 83.6483 42.7592C83.3784 43.1218 83.2393 43.5393 83.2309 44.0116C83.214 44.3995 83.2899 44.7411 83.4586 45.0362C83.6357 45.3314 83.8887 45.5929 84.2176 45.8206C84.5549 46.0398 84.9597 46.2338 85.432 46.4025C85.9043 46.5711 86.4356 46.7187 87.0259 46.8452L89.2524 47.3512C90.5343 47.6295 91.6644 48.0006 92.6427 48.4645C93.6294 48.9283 94.4559 49.4807 95.1221 50.1216C95.7968 50.7626 96.307 51.5005 96.6528 52.3354C96.9986 53.1704 97.1757 54.1065 97.1841 55.1438C97.1757 56.7799 96.7624 58.1841 95.9444 59.3563C95.1263 60.5286 93.9498 61.4268 92.4149 62.0508C90.8885 62.6749 89.0458 62.987 86.8868 62.987C84.7194 62.987 82.8303 62.6623 81.2195 62.0129C79.6087 61.3635 78.3563 60.3768 77.4623 59.0527C76.5684 57.7287 76.1088 56.0546 76.0835 54.0306H82.0797C82.1303 54.8655 82.3538 55.5613 82.7502 56.1179C83.1465 56.6745 83.6905 57.0962 84.382 57.3829C85.082 57.6696 85.8916 57.813 86.8109 57.813C87.6542 57.813 88.3711 57.6991 88.9614 57.4714C89.5602 57.2437 90.0198 56.9275 90.3403 56.5227C90.6608 56.1179 90.8252 55.654 90.8337 55.1312C90.8252 54.642 90.6734 54.2245 90.3783 53.8788C90.0831 53.5246 89.6277 53.221 89.012 52.968C88.4048 52.7065 87.6289 52.4662 86.6844 52.2469L83.9772 51.6144C81.7339 51.0999 79.9671 50.2692 78.6768 49.1223C77.3864 47.9669 76.7455 46.4067 76.7539 44.4417C76.7455 42.8393 77.1756 41.4351 78.0443 40.2291C78.9129 39.0232 80.1147 38.0828 81.6496 37.4081C83.1845 36.7335 84.9344 36.3961 86.8994 36.3961C88.9066 36.3961 90.6481 36.7377 92.124 37.4208C93.6083 38.0955 94.7595 39.0442 95.5775 40.2671C96.3956 41.49 96.813 42.9068 96.8299 44.5176H90.8337Z" fill="#ABC7FF"/>
</svg>
