<svg width="946" height="381" viewBox="0 0 946 381" fill="none" xmlns="http://www.w3.org/2000/svg">
<path d="M280.2 75.0221C318.949 98.9578 344.771 141.818 344.771 190.708C344.771 265.752 283.936 326.587 208.892 326.587C192.527 326.587 176.838 323.694 162.312 318.387L160.76 317.81L163.287 316.998L166.535 315.933L168.138 315.397L169.726 314.86L172.86 313.781L175.936 312.694L178.955 311.601L181.916 310.5L183.376 309.946L186.251 308.834C189.288 307.644 192.227 306.442 195.068 305.226L197.18 304.312L199.769 303.162C200.907 302.65 202.028 302.135 203.132 301.618L204.775 300.84L207.193 299.667L208.38 299.077L209.553 298.486L211.856 297.297C231.188 287.156 244.323 276.14 251.296 264.062C266.071 238.47 253.168 211.122 216.124 183.242L213.11 180.981L211.278 179.577L209.5 178.183L207.776 176.8L206.104 175.428L205.288 174.746L204.485 174.066L202.918 172.715L201.778 171.708L200.667 170.707L199.231 169.382L197.847 168.067L196.515 166.762L195.868 166.113L195.234 165.467L194.005 164.183C179.361 148.616 176.091 135.29 182.739 123.776C186.123 117.915 191.989 112.153 200.327 106.542L201.34 105.869L202.934 104.843C203.655 104.388 204.393 103.934 205.146 103.481L206.29 102.802L208.05 101.787L209.867 100.775L211.265 100.019L212.695 99.265L214.65 98.263C216.137 97.513 217.67 96.7664 219.251 96.0232L220.847 95.2811L223.023 94.2954L224.132 93.8042L226.391 92.8248L227.542 92.3368L229.884 91.364L231.076 90.8792L233.501 89.9132L234.735 89.4318L237.243 88.4726L239.806 87.518L241.109 87.0425L243.755 86.0951L246.456 85.1525L249.213 84.2148L250.612 83.7478L253.452 82.8176L256.347 81.8925L259.296 80.9725L262.301 80.0578L265.362 79.1484L269.264 78.0192L273.253 76.8985L278.153 75.5651L280.2 75.0221ZM208.892 54.8293C225.416 54.8293 241.251 57.7789 255.9 63.1804L257.465 63.7684L256.472 64.0688L251.633 65.5607L250.048 66.0618L246.921 67.0699L243.851 68.0859L240.839 69.1098L237.883 70.1417L234.984 71.1817L233.556 71.7048L230.048 73.0213L226.629 74.3507L223.958 75.4237L222.644 75.9633L220.058 77.0489C193.632 88.3107 176.312 100.938 168.03 115.283C153.575 140.32 166.686 167.311 203.733 195.184L206.747 197.444L208.578 198.85L210.355 200.245L211.223 200.939L212.92 202.319L214.158 203.347L215.366 204.371L216.93 205.726L217.692 206.4L219.177 207.741C219.988 208.483 220.774 209.221 221.536 209.954L222.661 211.051L224.28 212.683L225.818 214.301C240.399 229.976 243.516 243.568 236.587 255.569C232.104 263.335 223.544 270.979 210.928 278.4L209.769 279.074L207.892 280.137L205.96 281.197C204.87 281.785 203.755 282.372 202.614 282.957L200.883 283.833L198.754 284.881L196.57 285.926L194.33 286.968L193.189 287.487L190.866 288.523L188.486 289.555L186.051 290.584L184.812 291.096L182.293 292.119L181.013 292.629L179.719 293.137L177.089 294.152L174.403 295.162L171.661 296.169L168.864 297.171L166.011 298.169L164.563 298.666L161.627 299.657L160.138 300.151L157.118 301.135L154.042 302.115L150.12 303.333L146.11 304.544L142.84 305.508L138.276 306.82C99.1423 282.969 73.0127 239.89 73.0127 190.708C73.0127 115.664 133.848 54.8293 208.892 54.8293Z" fill="#0080FF"/>
<path d="M821.476 232.483V152.577H846.187V167.143H847.019C848.476 161.871 850.852 157.952 854.146 155.386C857.441 152.785 861.273 151.484 865.643 151.484C866.822 151.484 868.036 151.571 869.285 151.744C870.533 151.883 871.695 152.108 872.77 152.421V174.53C871.556 174.114 869.961 173.784 867.984 173.542C866.042 173.299 864.308 173.177 862.782 173.177C859.765 173.177 857.042 173.854 854.615 175.206C852.222 176.524 850.331 178.38 848.944 180.773C847.592 183.131 846.915 185.905 846.915 189.096V232.483H821.476Z" fill="#ABC7FF"/>
<path d="M770.56 233.991C762.201 233.991 754.988 232.343 748.918 229.048C742.884 225.719 738.237 220.985 734.976 214.846C731.751 208.673 730.138 201.338 730.138 192.841C730.138 184.587 731.768 177.373 735.028 171.2C738.289 164.992 742.884 160.171 748.814 156.738C754.745 153.269 761.733 151.535 769.779 151.535C775.467 151.535 780.669 152.42 785.386 154.189C790.103 155.957 794.178 158.576 797.611 162.044C801.045 165.512 803.715 169.795 805.623 174.893C807.53 179.957 808.484 185.766 808.484 192.321V198.668H739.034V183.893H784.814C784.779 181.188 784.137 178.778 782.889 176.662C781.64 174.547 779.924 172.899 777.739 171.72C775.588 170.506 773.109 169.899 770.3 169.899C767.456 169.899 764.907 170.541 762.652 171.824C760.398 173.073 758.612 174.789 757.294 176.974C755.976 179.125 755.282 181.57 755.213 184.309V199.344C755.213 202.604 755.855 205.465 757.138 207.927C758.421 210.355 760.242 212.245 762.6 213.598C764.959 214.95 767.768 215.627 771.028 215.627C773.282 215.627 775.328 215.315 777.166 214.69C779.005 214.066 780.583 213.147 781.901 211.933C783.218 210.719 784.207 209.228 784.866 207.459L808.224 208.136C807.253 213.372 805.12 217.933 801.825 221.817C798.565 225.667 794.282 228.667 788.976 230.817C783.669 232.933 777.531 233.991 770.56 233.991Z" fill="#ABC7FF"/>
<path d="M639.503 262.447V152.576H664.682V166.258H665.462C666.502 163.83 667.976 161.489 669.884 159.235C671.826 156.98 674.288 155.142 677.271 153.72C680.288 152.264 683.895 151.535 688.092 151.535C693.641 151.535 698.825 152.992 703.646 155.905C708.502 158.819 712.421 163.31 715.403 169.379C718.386 175.448 719.877 183.182 719.877 192.581C719.877 201.633 718.438 209.211 715.559 215.315C712.715 221.419 708.866 225.996 704.01 229.048C699.19 232.1 693.831 233.626 687.935 233.626C683.912 233.626 680.427 232.967 677.479 231.65C674.531 230.332 672.051 228.598 670.04 226.447C668.063 224.297 666.537 221.991 665.462 219.528H664.942V262.447H639.503ZM664.421 192.529C664.421 196.829 664.994 200.575 666.138 203.766C667.317 206.956 668.999 209.436 671.184 211.205C673.404 212.939 676.057 213.806 679.144 213.806C682.265 213.806 684.918 212.939 687.103 211.205C689.288 209.436 690.935 206.956 692.045 203.766C693.19 200.575 693.762 196.829 693.762 192.529C693.762 188.228 693.19 184.5 692.045 181.344C690.935 178.188 689.288 175.743 687.103 174.009C684.953 172.275 682.3 171.408 679.144 171.408C676.022 171.408 673.369 172.258 671.184 173.957C668.999 175.656 667.317 178.084 666.138 181.24C664.994 184.396 664.421 188.159 664.421 192.529Z" fill="#ABC7FF"/>
<path d="M597.872 232.482V152.576H623.311V232.482H597.872ZM610.617 143.264C607.045 143.264 603.976 142.085 601.409 139.727C598.843 137.334 597.56 134.455 597.56 131.091C597.56 127.762 598.843 124.918 601.409 122.56C603.976 120.166 607.045 118.97 610.617 118.97C614.224 118.97 617.294 120.166 619.825 122.56C622.392 124.918 623.675 127.762 623.675 131.091C623.675 134.455 622.392 137.334 619.825 139.727C617.294 142.085 614.224 143.264 610.617 143.264Z" fill="#ABC7FF"/>
<path d="M486.479 232.483L465.671 152.577H491.213L501.982 203.767H502.658L514.207 152.577H539.126L550.987 203.402H551.663L562.12 152.577H587.663L566.802 232.483H539.594L527.109 185.923H526.224L513.739 232.483H486.479Z" fill="#ABC7FF"/>
<path d="M432.428 157.882C432.082 154.067 430.538 151.102 427.798 148.986C425.093 146.836 421.226 145.761 416.197 145.761C412.868 145.761 410.094 146.194 407.874 147.062C405.654 147.929 403.99 149.125 402.88 150.651C401.77 152.142 401.198 153.859 401.163 155.801C401.094 157.397 401.406 158.801 402.099 160.015C402.828 161.229 403.868 162.304 405.221 163.24C406.608 164.142 408.273 164.94 410.215 165.633C412.157 166.327 414.342 166.934 416.77 167.454L425.926 169.535C431.197 170.68 435.845 172.206 439.868 174.113C443.925 176.021 447.324 178.292 450.064 180.928C452.838 183.564 454.937 186.598 456.359 190.032C457.781 193.465 458.509 197.315 458.544 201.581C458.509 208.309 456.809 214.083 453.445 218.904C450.081 223.725 445.243 227.418 438.931 229.985C432.654 232.551 425.076 233.835 416.197 233.835C407.284 233.835 399.516 232.499 392.892 229.829C386.267 227.158 381.117 223.101 377.441 217.656C373.765 212.211 371.875 205.326 371.771 197.003H396.429C396.637 200.436 397.556 203.298 399.186 205.587C400.816 207.875 403.053 209.61 405.897 210.789C408.776 211.968 412.105 212.557 415.885 212.557C419.353 212.557 422.301 212.089 424.729 211.153C427.191 210.216 429.082 208.916 430.4 207.251C431.717 205.587 432.394 203.679 432.428 201.529C432.394 199.517 431.769 197.801 430.556 196.379C429.342 194.922 427.469 193.673 424.937 192.633C422.44 191.558 419.249 190.569 415.365 189.668L404.232 187.067C395.007 184.951 387.741 181.535 382.435 176.818C377.129 172.067 374.493 165.651 374.528 157.57C374.493 150.981 376.262 145.206 379.834 140.247C383.406 135.287 388.348 131.42 394.66 128.646C400.972 125.871 408.169 124.484 416.249 124.484C424.504 124.484 431.665 125.888 437.735 128.698C443.839 131.472 448.573 135.374 451.937 140.403C455.301 145.431 457.018 151.258 457.087 157.882H432.428Z" fill="#ABC7FF"/>
</svg>
